<svg display="none" xmlns="http://www.w3.org/2000/svg">
    <symbol id="logo-svg" viewBox="0 0 50 50">
        <path fill-rule="evenodd" clip-rule="evenodd" d="M25 50C38.8071 50 50 38.8071 50 25C50 11.1929 38.8071 0 25 0C11.1929 0 0 11.1929 0 25C0 33.1791 3.92777 40.4408 10 45.0018V6H40V15H21V24H38V32.5H21V49.6817C22.3024 49.8912 23.6385 50 25 50Z"/>

    </symbol>

    <symbol id="search-svg" viewBox="0 0 487.95 487.95">
        <path d="M481.8,453l-140-140.1c27.6-33.1,44.2-75.4,44.2-121.6C386,85.9,299.5,0.2,193.1,0.2S0,86,0,191.4s86.5,191.1,192.9,191.1
			c45.2,0,86.8-15.5,119.8-41.4l140.5,140.5c8.2,8.2,20.4,8.2,28.6,0C490,473.4,490,461.2,481.8,453z M41,191.4
			c0-82.8,68.2-150.1,151.9-150.1s151.9,67.3,151.9,150.1s-68.2,150.1-151.9,150.1S41,274.1,41,191.4z"/>
    </symbol>

    <symbol id="git-svg" viewBox="0 0 512 512">
        <rect
        width="512" height="512"
        rx="15%"
        fill=""/><path fill="#161b22" d="M335 499c14 0 12 17 12 17H165s-2-17 12-17c13 0 16-6 16-12l-1-50c-71 16-86-28-86-28-12-30-28-37-28-37-24-16 1-16 1-16 26 2 40 26 40 26 22 39 59 28 74 22 2-17 9-28 16-35-57-6-116-28-116-126 0-28 10-51 26-69-3-6-11-32 3-67 0 0 21-7 70 26 42-12 86-12 128 0 49-33 70-26 70-26 14 35 6 61 3 67 16 18 26 41 26 69 0 98-60 120-117 126 10 8 18 24 18 48l-1 70c0 6 3 12 16 12z"/>
    </symbol>

    <symbol id="home-svg" viewBox="0 0 491.47 491.47">
        <path d="M0,268.68h73.023v222.055h345.393V268.68h73.054L245.712,0.735L0,268.68z M387.777,238.056v222.055H103.632V238.056H69.624
		L245.712,46.043L421.8,238.056H387.777z"/>
    </symbol>

    <symbol id="forum-svg" viewBox="0 0 32 32">
        <path d="M28,6H8C6.8,6,6,6.8,6,8v14c0,1.2,0.8,2,2,2h8v-2H8V8h20v14h-7.2L16,28.8l1.6,1.2l4.2-6H28c1.2,0,2-0.8,2-2V8
            C30,6.8,29.2,6,28,6z"/>
        <path d="M4,18H2V5c0-1.7,1.3-3,3-3h13v2H5C4.4,4,4,4.4,4,5V18z"/>
        <rect id="_Transparent_Rectangle_" class="st0"/>
    </symbol>

    <symbol id="news-svg" viewBox="0 0 32 32">
        <path d="M26,30H6a2.0023,2.0023,0,0,1-2-2V4A2.0023,2.0023,0,0,1,6,2H26a2.0023,2.0023,0,0,1,2,2V28A2.0023,2.0023,0,0,1,26,30ZM6,4V28H26V4Z"/>
        <rect x="10" y="13" width="12" height="2" transform="translate(32 28) rotate(-180)"/>
        <rect x="12" y="18" width="8" height="2" transform="translate(32 38) rotate(-180)"/>
        <rect id="_Transparent_Rectangle_" data-name="&lt;Transparent Rectangle&gt;" class="cls-1"/>
    </symbol>

    <symbol id="profile-svg" viewBox="0 0 64 64">
        <g>
	    <path d="M32,42c8.271,0,15-8.523,15-19S40.271,4,32,4s-15,8.523-15,19S23.729,42,32,42z M32,8c5.963,0,11,6.869,11,15
		s-5.037,15-11,15s-11-6.869-11-15S26.037,8,32,8z"/>
	    <path d="M4.103,45.367l-4,12c-0.203,0.61-0.101,1.28,0.275,1.802C0.753,59.691,1.357,60,2,60h60c0.643,0,1.247-0.309,1.622-0.831
		c0.376-0.521,0.479-1.191,0.275-1.802l-4-12c-0.209-0.626-0.713-1.108-1.348-1.29l-14-4c-0.482-0.139-0.996-0.09-1.444,0.134
		L32,45.764l-11.105-5.553c-0.448-0.224-0.962-0.272-1.444-0.134l-14,4C4.815,44.259,4.312,44.741,4.103,45.367z M19.802,44.137
		l11.304,5.652c0.562,0.281,1.227,0.281,1.789,0l11.304-5.652l12.238,3.496L59.226,56H4.774l2.789-8.367L19.802,44.137z"/>
        </g>
    </symbol>

    <symbol id="game-svg" viewBox="0 0 17 17">
        <path d="M9 3.988v-2.988h-1v2.988c-3.564 0.105-8 1.282-8 2.487v7.041c0 0.827 0.673 1.5 1.5 1.5h1.79l1.996-3.931c0.567 0.104 1.713 0.274 3.173 0.274 1.479 0 2.694-0.174 3.288-0.277l1.908 3.934h1.845c0.827 0 1.5-0.673 1.5-1.5v-7.041c0-1.205-4.437-2.383-8-2.487zM16 13.516c0 0.275-0.225 0.5-0.5 0.5h-1.218l-1.976-4.070-0.386 0.085c-0.015 0.003-1.515 0.329-3.462 0.329-1.941 0-3.315-0.323-3.329-0.327l-0.384-0.093-2.068 4.075h-1.177c-0.275 0-0.5-0.225-0.5-0.5v-6.915c0.502-0.437 3.38-1.518 7-1.611v0.011h1v-0.013c3.619 0.094 6.498 1.175 7 1.612v6.917zM5 7.020h0.998v1h-0.998v1.020h-1v-1.020h-1v-1h1v-1.020h1v1.020zM12.5 9.020c0.827 0 1.5-0.673 1.5-1.5s-0.673-1.5-1.5-1.5-1.5 0.672-1.5 1.5 0.673 1.5 1.5 1.5zM12.5 7.020c0.275 0 0.5 0.225 0.5 0.5s-0.225 0.5-0.5 0.5-0.5-0.225-0.5-0.5 0.225-0.5 0.5-0.5z"/>
    </symbol>

    <symbol id="triangle-svg" viewBox="0 0 120 120">
        <polygon points="0.233,106.52 60,3 119.768,106.52 "/>
    </symbol>

    <symbol id="sport-svg" viewBox="0 0 219.57 219.57">
        <path d="M187.417,32.156C166.681,11.42,139.111,0,109.788,0C80.463,0,52.893,11.42,32.156,32.157
		C11.419,52.891-0.001,80.461,0,109.785c0,29.324,11.421,56.894,32.158,77.631c20.736,20.735,48.306,32.154,77.631,32.154
		c29.323,0,56.892-11.419,77.626-32.153c20.735-20.737,32.154-48.308,32.155-77.633C219.571,80.457,208.152,52.888,187.417,32.156z
		 M176.808,176.81c-15.334,15.335-35,24.761-56.237,27.15c-0.156-3.672-0.475-7.339-0.995-10.964l-14.848,2.131
		c0.443,3.091,0.718,6.216,0.855,9.347c-23.739-1.029-45.911-10.758-62.818-27.665c-16.909-16.909-26.639-39.081-27.669-62.82
		c3.131,0.138,6.257,0.413,9.349,0.856l2.131-14.848c-3.626-0.521-7.294-0.839-10.967-0.996
		c2.39-21.238,11.817-40.904,27.154-56.239C58.098,27.428,77.765,18.001,99.002,15.61c0.157,3.671,0.476,7.337,0.996,10.964
		l14.848-2.131c-0.443-3.092-0.718-6.218-0.855-9.348c23.738,1.029,45.911,10.758,62.82,27.667
		c16.908,16.906,26.636,39.077,27.664,62.818c-3.129-0.138-6.255-0.412-9.346-0.855L193,119.573
		c3.625,0.52,7.289,0.848,10.959,1.005C201.567,141.812,192.141,161.476,176.808,176.81z"/>
        <path d="M88.536,131.035c-3.838-3.838-7.979-7.412-12.306-10.622l-8.938,12.046c3.738,2.774,7.316,5.863,10.637,9.183
            c3.316,3.316,6.402,6.89,9.173,10.622l12.045-8.94C95.94,139.003,92.37,134.868,88.536,131.035z"/>
        <path d="M92.302,160.046c4.813,8.042,8.392,16.747,10.638,25.875l14.566-3.584c-2.604-10.579-6.753-20.67-12.333-29.994
            L92.302,160.046z"/>
        <path d="M33.636,116.631c9.128,2.244,17.834,5.822,25.878,10.633l7.699-12.873c-9.325-5.578-19.417-9.725-29.995-12.326
            L33.636,116.631z"/>
        <path d="M116.636,33.651l-14.566,3.583c2.603,10.578,6.751,20.67,12.332,29.995l12.871-7.703
            C122.459,51.484,118.881,42.778,116.636,33.651z"/>
        <path d="M152.362,105.18c9.325,5.578,19.417,9.725,29.994,12.326l3.582-14.566c-9.127-2.244-17.833-5.821-25.877-10.633
            L152.362,105.18z"/>
        <path d="M132.47,67.307l-12.043,8.941c3.209,4.322,6.778,8.456,10.611,12.289c3.841,3.839,7.982,7.413,12.306,10.621l8.938-12.046
            c-3.736-2.772-7.316-5.862-10.638-9.182C138.329,74.616,135.243,71.041,132.47,67.307z"/>
    </symbol>

    <symbol id="Business-svg" viewBox="0 0 96 96">
        <path d="M37.571 9.571c-.955.956-1.571 3.308-1.571 6V20H25.547C7.715 20 8 19.513 8 50c0 24.317.426 26.962 4.657 28.89 3.374 1.537 67.312 1.537 70.686 0C87.574 76.962 88 74.317 88 50c0-30.487.285-30-17.547-30H60v-4.429C60 8.929 58.528 8 48 8c-6.719 0-9.237.379-10.429 1.571M44 18c0 1.667.667 2 4 2s4-.333 4-2-.667-2-4-2-4 .333-4 2M16 50v22h64V28h-8v8h-8v-8H32v8h-8v-8h-8v22m38-8c-1.1 1.1-2 2.9-2 4s.9 2.9 2 4c3.585 3.585 10 1.019 10-4 0-1.1-.9-2.9-2-4s-2.9-2-4-2-2.9.9-4 2m8.75 13.561C57.938 58.014 54 60.226 54 60.477c0 .25.741 2.01 1.647 3.909l1.647 3.455 9.278-4.609 9.277-4.608-1.945-3.812c-1.07-2.097-2.048-3.789-2.174-3.761-.127.027-4.167 2.057-8.98 4.51" fill-rule="evenodd"/>
    </symbol>

    <symbol id="cripto-svg" viewBox="0 0 24 24">
        <path stroke="currentColor" stroke-linecap="round" stroke-linejoin="round" stroke-width="2" d="M12 22c5.523 0 10-4.477 10-10S17.523 2 12 2 2 6.477 2 12s4.477 10 10 10z" fill="none"/>
        <path stroke="currentColor" stroke-linecap="round" stroke-linejoin="round" stroke-width="2" d="M8 8h5m1 4c.667 0 2-.4 2-2s-1.333-2-2-2h-1m1 4c.667 0 2 .4 2 2s-1.333 2-2 2h-1m1-4h-4m-2 4h5M10 6v6m0 6v-6m3-6v2m0 8v2" fill="none"/>
    </symbol>

    <symbol id="more-svg" viewBox="0 0 210 210">
        <g id="XMLID_88_">
            <path id="XMLID_89_" d="M25,80C11.215,80,0,91.215,0,105s11.215,25,25,25c13.785,0,25-11.215,25-25S38.785,80,25,80z"/>
            <path id="XMLID_91_" d="M105,80c-13.785,0-25,11.215-25,25s11.215,25,25,25c13.785,0,25-11.215,25-25S118.785,80,105,80z"/>
            <path id="XMLID_93_" d="M185,80c-13.785,0-25,11.215-25,25s11.215,25,25,25c13.785,0,25-11.215,25-25S198.785,80,185,80z"/>
        </g>
    </symbol>

    <symbol id="send-svg" viewBox="0 0 512.001 512.001">
        <g>
			<path d="M483.927,212.664L66.967,25.834C30.95,9.695-7.905,42.024,1.398,80.367l21.593,89.001
				c3.063,12.622,11.283,23.562,22.554,30.014l83.685,47.915c6.723,3.85,6.738,13.546,0,17.405l-83.684,47.915
				c-11.271,6.452-19.491,17.393-22.554,30.015L1.398,431.633c-9.283,38.257,29.507,70.691,65.569,54.534l416.961-186.83
				C521.383,282.554,521.333,229.424,483.927,212.664z M468.609,265.151l-416.96,186.83c-7.618,3.417-15.814-3.398-13.845-11.516
				l21.593-89.001c0.647-2.665,2.383-4.975,4.761-6.337l83.685-47.915c31.857-18.239,31.887-64.167,0-82.423l-83.685-47.916
				c-2.379-1.362-4.115-3.672-4.761-6.337L37.804,71.535c-1.945-8.016,6.128-14.975,13.845-11.514L468.61,246.85
				C476.522,250.396,476.542,261.596,468.609,265.151z"/>
			<path d="M359.268,238.907l-147.519-66.1c-9.444-4.231-20.523-0.005-24.752,9.435c-4.231,9.44-0.006,20.523,9.434,24.752
				L305.802,256l-109.37,49.006c-9.44,4.231-13.664,15.313-9.434,24.752c4.231,9.443,15.312,13.663,24.752,9.435l147.519-66.101
				C373.996,266.495,374.006,245.51,359.268,238.907z"/>
		</g>
    </symbol>

    <symbol id="yey-svg" viewBox="0 0 442.04 442.04">
        <g>
            <path d="M221.02,341.304c-49.708,0-103.206-19.44-154.71-56.22C27.808,257.59,4.044,230.351,3.051,229.203
                c-4.068-4.697-4.068-11.669,0-16.367c0.993-1.146,24.756-28.387,63.259-55.881c51.505-36.777,105.003-56.219,154.71-56.219
                c49.708,0,103.207,19.441,154.71,56.219c38.502,27.494,62.266,54.734,63.259,55.881c4.068,4.697,4.068,11.669,0,16.367
                c-0.993,1.146-24.756,28.387-63.259,55.881C324.227,321.863,270.729,341.304,221.02,341.304z M29.638,221.021
                c9.61,9.799,27.747,27.03,51.694,44.071c32.83,23.361,83.714,51.212,139.688,51.212s106.859-27.851,139.688-51.212
                c23.944-17.038,42.082-34.271,51.694-44.071c-9.609-9.799-27.747-27.03-51.694-44.071
                c-32.829-23.362-83.714-51.212-139.688-51.212s-106.858,27.85-139.688,51.212C57.388,193.988,39.25,211.219,29.638,221.021z"/>
        </g>
        <g>
            <path d="M221.02,298.521c-42.734,0-77.5-34.767-77.5-77.5c0-42.733,34.766-77.5,77.5-77.5c18.794,0,36.924,6.814,51.048,19.188
                c5.193,4.549,5.715,12.446,1.166,17.639c-4.549,5.193-12.447,5.714-17.639,1.166c-9.564-8.379-21.844-12.993-34.576-12.993
                c-28.949,0-52.5,23.552-52.5,52.5s23.551,52.5,52.5,52.5c28.95,0,52.5-23.552,52.5-52.5c0-6.903,5.597-12.5,12.5-12.5
                s12.5,5.597,12.5,12.5C298.521,263.754,263.754,298.521,221.02,298.521z"/>
        </g>
        <g>
            <path d="M221.02,246.021c-13.785,0-25-11.215-25-25s11.215-25,25-25c13.786,0,25,11.215,25,25S234.806,246.021,221.02,246.021z"/>
        </g>
    </symbol>

    <symbol id="favorite-svg" viewBox="0 0 24 24">
        <path d="M5 21V5C5 3.89543 5.89543 3 7 3H17C18.1046 3 19 3.89543 19 5V21L13.0815 17.1953C12.4227 16.7717 11.5773 16.7717 10.9185 17.1953L5 21Z" stroke-width="1.5" stroke-linecap="round" stroke-linejoin="round"/>
    </symbol>

    <symbol id="about-svg" viewBox="0 -0.06 33.834 33.834">
        <g transform="translate(-95.748 -577)">
        <path d="M110.965,592.309a2.38,2.38,0,0,1,.489-1.434,9.29,9.29,0,0,1,1.443-1.482,10.139,10.139,0,0,0,1.321-1.372,1.985,1.985,0,0,0,.368-1.2,1.956,1.956,0,0,0-1.983-2,2.073,2.073,0,0,0-1.419.543,3.575,3.575,0,0,0-.954,1.582l-2.152-.939a5.029,5.029,0,0,1,1.724-2.656,4.626,4.626,0,0,1,2.9-.927,4.968,4.968,0,0,1,2.287.531,4.168,4.168,0,0,1,1.651,1.495,3.974,3.974,0,0,1,.612,2.175,3.688,3.688,0,0,1-.538,1.965,8.8,8.8,0,0,1-1.639,1.865,13.862,13.862,0,0,0-1.358,1.322,1.536,1.536,0,0,0-.379,1,2.85,2.85,0,0,0,.1.667h-2.2A2.737,2.737,0,0,1,110.965,592.309Zm1.467,6.968a1.851,1.851,0,0,1-1.357-.543,1.831,1.831,0,0,1-.551-1.359,1.875,1.875,0,0,1,.551-1.372,1.835,1.835,0,0,1,1.357-.556,1.87,1.87,0,0,1,1.909,1.928,1.834,1.834,0,0,1-.55,1.359A1.857,1.857,0,0,1,112.432,599.277Z"/>
        <path d="M97.222,610.717a1.475,1.475,0,0,1-.626-.14,1.459,1.459,0,0,1-.848-1.333V580.572A3.576,3.576,0,0,1,99.32,577h26.69a3.576,3.576,0,0,1,3.572,3.572v20.416a3.576,3.576,0,0,1-3.572,3.571H106.038a2.555,2.555,0,0,0-1.637.594l-6.24,5.22A1.467,1.467,0,0,1,97.222,610.717ZM99.32,579a1.574,1.574,0,0,0-1.572,1.572V608.11l5.37-4.491a4.561,4.561,0,0,1,2.92-1.06H126.01a1.573,1.573,0,0,0,1.572-1.571V580.572A1.574,1.574,0,0,0,126.01,579Z"/>
        </g>
    </symbol>

    <symbol id="arrow-svg" viewBox="0 0 511.996 511.996">
        <g>
            <path d="M409.862,148.561L265.052,3.75c-5.001-5-13.099-5-18.099,0L102.133,148.561c-5.001,5-5.001,13.099,0,18.099
                c5,5.001,13.099,5.001,18.099,0L243.198,43.703v455.492c0,7.074,5.726,12.8,12.8,12.8c7.074,0,12.8-5.726,12.8-12.8V43.703
                l122.965,122.965c5,5,13.099,5,18.099,0C414.863,161.66,414.863,153.57,409.862,148.561z"/>
        </g>
    </symbol>

    <symbol id="like-svg" viewBox="0 0 51.997 51.997">
       <g>
            <path d="M51.911,16.242C51.152,7.888,45.239,1.827,37.839,1.827c-4.93,0-9.444,2.653-11.984,6.905
                c-2.517-4.307-6.846-6.906-11.697-6.906c-7.399,0-13.313,6.061-14.071,14.415c-0.06,0.369-0.306,2.311,0.442,5.478
                c1.078,4.568,3.568,8.723,7.199,12.013l18.115,16.439l18.426-16.438c3.631-3.291,6.121-7.445,7.199-12.014
                C52.216,18.553,51.97,16.611,51.911,16.242z M49.521,21.261c-0.984,4.172-3.265,7.973-6.59,10.985L25.855,47.481L9.072,32.25
                c-3.331-3.018-5.611-6.818-6.596-10.99c-0.708-2.997-0.417-4.69-0.416-4.701l0.015-0.101C2.725,9.139,7.806,3.826,14.158,3.826
                c4.687,0,8.813,2.88,10.771,7.515l0.921,2.183l0.921-2.183c1.927-4.564,6.271-7.514,11.069-7.514
                c6.351,0,11.433,5.313,12.096,12.727C49.938,16.57,50.229,18.264,49.521,21.261z"/>
        </g>
    </symbol>

    <symbol id="reply-svg" viewBox="0 0 24 24">
      <path d="M10.53 5.03a.75.75 0 10-1.06-1.06l-6.25 6.25a.75.75 0 000 1.06l6.25 6.25a.75.75 0 101.06-1.06L5.56 11.5H17a3.248 3.248 0 013.25 3.248v4.502a.75.75 0 001.5 0v-4.502A4.748 4.748 0 0017 10H5.56l4.97-4.97z"/>
    </symbol>

    <symbol id="report-svg" viewBox="0 0 32 32">
        <path d="M23.74 7H18V6a1 1 0 00-1-1h-2a1 1 0 00-1 1v1h-2.764L5.447 4.106a.998.998 0 00-1.295.364c-5.293 8.469-.02 16.036.035 16.111a1 1 0 001.26.314L11.237 18H14a1 1 0 001 1h2a1 1 0 001-1h.995c-.07.707-.544 5.363-.98 7.826-.118.67.068 1.34.525 1.883.658.784 1.854 1.291 3.047 1.291H23c1.654 0 3-1.346 3-3v-8.53c1.767-.85 3-2.642 3-4.73v-.48C29 9.36 26.64 7 23.74 7zM10 16.382l-4.621 2.31c-.978-1.81-3.035-6.778.012-12.379L10 8.618v7.764zM14 16h-2V9h2v7zm10 10a1 1 0 01-1 1h-1.413c-.578 0-1.243-.253-1.515-.576-.108-.13-.095-.205-.088-.25.485-2.733.99-7.86 1.011-8.076.003-.034-.01-.065-.01-.098h2.754c.09 0 .173-.022.261-.026V26zm3-13.26A3.264 3.264 0 0123.74 16H18V9h5.74A3.264 3.264 0 0127 12.26v.48z"/>  
    </symbol>

    <symbol id="close-svg" viewBox="0 0 72 72">
        <g id="line">
            <line x1="17.5" x2="54.5" y1="17.5" y2="54.5" fill="none" stroke-linecap="round" stroke-linejoin="round" stroke-miterlimit="10" stroke-width="2"/>
            <line x1="54.5" x2="17.5" y1="17.5" y2="54.5" fill="none" stroke-linecap="round" stroke-linejoin="round" stroke-miterlimit="10" stroke-width="2"/>
        </g>    
    </symbol>

    <symbol id="sign-out-svg" viewBox="0 0 24 24">
        <path fill-rule="evenodd" d="M3 3.25c0-.966.784-1.75 1.75-1.75h5.5a.75.75 0 010 1.5h-5.5a.25.25 0 00-.25.25v17.5c0 .138.112.25.25.25h5.5a.75.75 0 010 1.5h-5.5A1.75 1.75 0 013 20.75V3.25zm16.006 9.5l-3.3 3.484a.75.75 0 001.088 1.032l4.5-4.75a.75.75 0 000-1.032l-4.5-4.75a.75.75 0 00-1.088 1.032l3.3 3.484H10.75a.75.75 0 000 1.5h8.256z"/>    
    </symbol>

    <symbol id="device-svg" viewBox="0 0 512 512">
        <g>
            <g>
                <path d="M404.672,152H283.328C259.44,152,240,171.44,240,195.328v249.344C240,468.56,259.44,488,283.328,488h121.344
                    C428.56,488,448,468.56,448,444.672V195.328C448,171.44,428.56,152,404.672,152z M416,444.672c0,6.256-5.072,11.328-11.328,11.328
                    H283.328c-6.256,0-11.328-5.072-11.328-11.328V195.328c0-6.256,5.072-11.328,11.328-11.328h121.344
                    c6.256,0,11.328,5.072,11.328,11.328V444.672z"/>
            </g>
        </g>
        <g>
            <g>
                <path d="M432,376H256c-8.832,0-16,7.168-16,16c0,8.832,7.168,16,16,16h176c8.832,0,16-7.168,16-16
                    C448,383.168,440.832,376,432,376z"/>
            </g>
        </g>
        <g>
            <g>
                <path d="M358.4,420c-6.08-5.92-16.64-6.08-22.72,0c-3.04,2.88-4.64,7.04-4.64,11.36c0,4.16,1.6,8.32,4.64,11.2
                    c3.04,3.04,7.2,4.8,11.36,4.8c4.16,0,8.32-1.76,11.36-4.8c2.88-3.04,4.64-7.04,4.64-11.2C363.04,427.04,361.28,423.04,358.4,420z"
                    />
            </g>
        </g>
        <g>
            <g>
                <path d="M450.88,24H61.184C27.872,24,16,43.2,16,61.152V312c0,8.832,7.168,16,16,16c8.832,0,16-7.168,16-16V61.152
                    C48,59.744,48,56,61.184,56H450.88C464,56,464,59.744,464,61.152V312c0,8.832,7.168,16,16,16c8.832,0,16-7.168,16-16V61.152
                    C496,43.2,484.144,24,450.88,24z"/>
            </g>
        </g>
        <g>
            <g>
                <path d="M256,344H46.624c-4.592,0-11.104-7.632-13.6-16H256c8.832,0,16-7.168,16-16c0-8.832-7.168-16-16-16H16
                    c-8.832,0-16,7.168-16,16v9.44C0,347.2,19.936,376,46.624,376H256c8.832,0,16-7.168,16-16C272,351.168,264.832,344,256,344z"/>
            </g>
        </g>
        <g>
            <g>
                <path d="M496,296h-64c-8.832,0-16,7.168-16,16c0,8.832,7.168,16,16,16h46.992c-2.496,8.368-8.992,16-13.552,16H432
                    c-8.832,0-16,7.168-16,16c0,8.832,7.168,16,16,16h33.44c26.64,0,46.56-28.8,46.56-54.56V312C512,303.168,504.832,296,496,296z"/>
            </g>
        </g>
        <g>
            <g>
                <path d="M256,24c-8.832,0-16,7.168-16,16v16c0,8.832,7.168,16,16,16c8.832,0,16-7.168,16-16V40C272,31.168,264.832,24,256,24z"/>
            </g>
        </g>
    </symbol>

    <symbol id="delete-svg" viewBox="0 0 297 297">
        <g>
			<path d="M229.554,145.738l4.264-51.168h7.462c5.646,0,10.224-4.578,10.224-10.224V65.688c0-17.596-14.316-31.912-31.912-31.912
				h-35.564v-4.723C184.028,13.032,170.994,0,154.975,0h-29.82c-16.02,0-29.052,13.032-29.052,29.052v4.723H60.539
				c-17.596,0-31.912,14.316-31.912,31.912v18.658c0,5.646,4.578,10.224,10.224,10.224h7.462L60.205,261.3
				c1.668,20.019,18.711,35.7,38.799,35.7h82.119c19.849,0,36.715-15.313,38.723-34.991c27.664-5.705,48.527-30.251,48.527-59.579
				C268.374,176.649,252.245,154.579,229.554,145.738z M116.551,29.052c0-4.744,3.86-8.604,8.604-8.604h29.82
				c4.745,0,8.605,3.86,8.605,8.604v4.723h-47.029V29.052z M49.073,74.123v-8.435c0-6.322,5.143-11.465,11.465-11.465h159.053
				c6.322,0,11.465,5.143,11.465,11.465v8.435H49.073z M181.124,276.552H99.005c-9.538,0-17.63-7.445-18.422-16.95L66.83,94.57
				h146.469l-3.923,47.076c-0.611-0.018-1.22-0.047-1.835-0.047c-33.543,0-60.831,27.289-60.831,60.831
				c0,30.647,22.785,56.06,52.303,60.221C196.942,270.65,189.614,276.552,181.124,276.552z M207.541,242.814
				c-22.268,0-40.384-18.116-40.384-40.384s18.116-40.384,40.384-40.384s40.384,18.116,40.384,40.384
				S229.809,242.814,207.541,242.814z"/>
			<path d="M222.002,202.431l9.64-9.64c3.991-3.993,3.991-10.467-0.002-14.459c-3.994-3.992-10.465-3.992-14.459,0l-9.64,9.64
				l-9.64-9.64c-3.994-3.992-10.465-3.992-14.459,0c-3.993,3.993-3.993,10.466,0,14.459l9.64,9.64l-9.64,9.64
				c-3.993,3.993-3.993,10.466,0,14.459c1.997,1.996,4.613,2.994,7.23,2.994s5.233-0.998,7.23-2.994l9.64-9.64l9.64,9.64
				c1.997,1.996,4.613,2.994,7.23,2.994c2.617,0,5.233-0.998,7.23-2.994c3.993-3.993,3.993-10.466,0-14.459L222.002,202.431z"/>
		</g>
    </symbol>

    <symbol id="settings-svg" viewBox="0 0 1024 1024">
       <path d="M924.8 625.7l-65.5-56c3.1-19 4.7-38.4 4.7-57.8s-1.6-38.8-4.7-57.8l65.5-56a32.03 32.03 0 0 0 9.3-35.2l-.9-2.6a443.74 443.74 0 0 0-79.7-137.9l-1.8-2.1a32.12 32.12 0 0 0-35.1-9.5l-81.3 28.9c-30-24.6-63.5-44-99.7-57.6l-15.7-85a32.05 32.05 0 0 0-25.8-25.7l-2.7-.5c-52.1-9.4-106.9-9.4-159 0l-2.7.5a32.05 32.05 0 0 0-25.8 25.7l-15.8 85.4a351.86 351.86 0 0 0-99 57.4l-81.9-29.1a32 32 0 0 0-35.1 9.5l-1.8 2.1a446.02 446.02 0 0 0-79.7 137.9l-.9 2.6c-4.5 12.5-.8 26.5 9.3 35.2l66.3 56.6c-3.1 18.8-4.6 38-4.6 57.1 0 19.2 1.5 38.4 4.6 57.1L99 625.5a32.03 32.03 0 0 0-9.3 35.2l.9 2.6c18.1 50.4 44.9 96.9 79.7 137.9l1.8 2.1a32.12 32.12 0 0 0 35.1 9.5l81.9-29.1c29.8 24.5 63.1 43.9 99 57.4l15.8 85.4a32.05 32.05 0 0 0 25.8 25.7l2.7.5a449.4 449.4 0 0 0 159 0l2.7-.5a32.05 32.05 0 0 0 25.8-25.7l15.7-85a350 350 0 0 0 99.7-57.6l81.3 28.9a32 32 0 0 0 35.1-9.5l1.8-2.1c34.8-41.1 61.6-87.5 79.7-137.9l.9-2.6c4.5-12.3.8-26.3-9.3-35zM788.3 465.9c2.5 15.1 3.8 30.6 3.8 46.1s-1.3 31-3.8 46.1l-6.6 40.1 74.7 63.9a370.03 370.03 0 0 1-42.6 73.6L721 702.8l-31.4 25.8c-23.9 19.6-50.5 35-79.3 45.8l-38.1 14.3-17.9 97a377.5 377.5 0 0 1-85 0l-17.9-97.2-37.8-14.5c-28.5-10.8-55-26.2-78.7-45.7l-31.4-25.9-93.4 33.2c-17-22.9-31.2-47.6-42.6-73.6l75.5-64.5-6.5-40c-2.4-14.9-3.7-30.3-3.7-45.5 0-15.3 1.2-30.6 3.7-45.5l6.5-40-75.5-64.5c11.3-26.1 25.6-50.7 42.6-73.6l93.4 33.2 31.4-25.9c23.7-19.5 50.2-34.9 78.7-45.7l37.9-14.3 17.9-97.2c28.1-3.2 56.8-3.2 85 0l17.9 97 38.1 14.3c28.7 10.8 55.4 26.2 79.3 45.8l31.4 25.8 92.8-32.9c17 22.9 31.2 47.6 42.6 73.6L781.8 426l6.5 39.9zM512 326c-97.2 0-176 78.8-176 176s78.8 176 176 176 176-78.8 176-176-78.8-176-176-176zm79.2 255.2A111.6 111.6 0 0 1 512 614c-29.9 0-58-11.7-79.2-32.8A111.6 111.6 0 0 1 400 502c0-29.9 11.7-58 32.8-79.2C454 401.6 482.1 390 512 390c29.9 0 58 11.6 79.2 32.8A111.6 111.6 0 0 1 624 502c0 29.9-11.7 58-32.8 79.2z"/>
    </symbol>

    <symbol id="add-svg" viewBox="0 0 512 512">
       <g>
		<path d="M490.667,234.667H277.333V21.333C277.333,9.551,267.782,0,256,0s-21.333,9.551-21.333,21.333v213.333H21.333
			C9.551,234.667,0,244.218,0,256s9.551,21.333,21.333,21.333h213.333v213.333c0,11.782,9.551,21.333,21.333,21.333
			s21.333-9.551,21.333-21.333V277.333h213.333c11.782,0,21.333-9.551,21.333-21.333S502.449,234.667,490.667,234.667z"/>
	    </g>
    </symbol>

    <symbol id="admin-svg" viewBox="0 0 24 24">
        <g>
            <path fill="none" d="M0 0h24v24H0z"/>
            <path d="M12 14v2a6 6 0 0 0-6 6H4a8 8 0 0 1 8-8zm0-1c-3.315 0-6-2.685-6-6s2.685-6 6-6 6 2.685 6 6-2.685 6-6 6zm0-2c2.21 0 4-1.79 4-4s-1.79-4-4-4-4 1.79-4 4 1.79 4 4 4zm9 6h1v5h-8v-5h1v-1a3 3 0 0 1 6 0v1zm-2 0v-1a1 1 0 0 0-2 0v1h2z"/>
        </g>
    </symbol>

    <symbol id="topic-svg" viewBox="0 0 15 15">
        <path d="M7 3.5H15M7 11.5H15M1.5 1.5H3.5C4.05228 1.5 4.5 1.94772 4.5 2.5V4.5C4.5 5.05228 4.05228 5.5 3.5 5.5H1.5C0.947715 5.5 0.5 5.05228 0.5 4.5V2.5C0.5 1.94772 0.947715 1.5 1.5 1.5ZM1.5 9.5H3.5C4.05228 9.5 4.5 9.94772 4.5 10.5V12.5C4.5 13.0523 4.05228 13.5 3.5 13.5H1.5C0.947715 13.5 0.5 13.0523 0.5 12.5V10.5C0.5 9.94772 0.947715 9.5 1.5 9.5Z"/>
    </symbol>

    <symbol id="category-svg" viewBox="0 0 32 32">
        <style>.cls-1{fill:none;}</style>
        <path d="M27,22.1414V18a2,2,0,0,0-2-2H17V12h2a2.0023,2.0023,0,0,0,2-2V4a2.0023,2.0023,0,0,0-2-2H13a2.002,2.002,0,0,0-2,2v6a2.002,2.002,0,0,0,2,2h2v4H7a2,2,0,0,0-2,2v4.1421a4,4,0,1,0,2,0V18h8v4.142a4,4,0,1,0,2,0V18h8v4.1414a4,4,0,1,0,2,0ZM13,4h6l.001,6H13ZM8,26a2,2,0,1,1-2-2A2.0023,2.0023,0,0,1,8,26Zm10,0a2,2,0,1,1-2-2A2.0027,2.0027,0,0,1,18,26Zm8,2a2,2,0,1,1,2-2A2.0023,2.0023,0,0,1,26,28Z"/>
        <rect id="_Transparent_Rectangle_" data-name="&lt;Transparent Rectangle&gt;" class="cls-1"/>
    </symbol>
</svg>