<svg display="none" xmlns="http://www.w3.org/2000/svg">
    <symbol id="logo-svg" viewBox="0 0 50 50">
        <g clip-path="url(#clip0_1_2)">
            <path fill-rule="evenodd" clip-rule="evenodd" d="M44.4272 40.7361C47.912 36.4392 50 30.9634 50 25C50 23.8589 49.9235 22.7357 49.7755 21.6351L44.4272 40.7361ZM33.244 48.6088L25.6667 23.6667L17.6781 48.9107C19.9938 49.6189 22.4524 50 25 50C27.8886 50 30.6628 49.5101 33.244 48.6088ZM7.30997 42.6653C2.79312 38.1422 0 31.8973 0 25C0 22.8927 0.260717 20.8464 0.751655 18.8914L7.30997 42.6653ZM2.79619 13.5H6.66667L13.6667 39.5L22 13.5H29.5L37.5 39.8333L44.6667 13.5H47.2038C43.0413 5.47947 34.6605 0 25 0C15.3395 0 6.95871 5.47947 2.79619 13.5Z" fill="#D9D9D9"/>
        </g>
    </symbol>
    <symbol id="search-svg" viewBox="0 0 487.95 487.95">
        <path d="M481.8,453l-140-140.1c27.6-33.1,44.2-75.4,44.2-121.6C386,85.9,299.5,0.2,193.1,0.2S0,86,0,191.4s86.5,191.1,192.9,191.1
			c45.2,0,86.8-15.5,119.8-41.4l140.5,140.5c8.2,8.2,20.4,8.2,28.6,0C490,473.4,490,461.2,481.8,453z M41,191.4
			c0-82.8,68.2-150.1,151.9-150.1s151.9,67.3,151.9,150.1s-68.2,150.1-151.9,150.1S41,274.1,41,191.4z"/>
    </symbol>
</svg>