<svg display="none" xmlns="http://www.w3.org/2000/svg">
    <symbol id="logo-svg" viewBox="0 0 50 50">
        <g clip-path="url(#clip0_1_2)">
            <path fill-rule="evenodd" clip-rule="evenodd" d="M44.4272 40.7361C47.912 36.4392 50 30.9634 50 25C50 23.8589 49.9235 22.7357 49.7755 21.6351L44.4272 40.7361ZM33.244 48.6088L25.6667 23.6667L17.6781 48.9107C19.9938 49.6189 22.4524 50 25 50C27.8886 50 30.6628 49.5101 33.244 48.6088ZM7.30997 42.6653C2.79312 38.1422 0 31.8973 0 25C0 22.8927 0.260717 20.8464 0.751655 18.8914L7.30997 42.6653ZM2.79619 13.5H6.66667L13.6667 39.5L22 13.5H29.5L37.5 39.8333L44.6667 13.5H47.2038C43.0413 5.47947 34.6605 0 25 0C15.3395 0 6.95871 5.47947 2.79619 13.5Z" fill="#D9D9D9"/>
        </g>
    </symbol>
    <symbol id="search-svg" viewBox="0 0 487.95 487.95">
        <path d="M481.8,453l-140-140.1c27.6-33.1,44.2-75.4,44.2-121.6C386,85.9,299.5,0.2,193.1,0.2S0,86,0,191.4s86.5,191.1,192.9,191.1
			c45.2,0,86.8-15.5,119.8-41.4l140.5,140.5c8.2,8.2,20.4,8.2,28.6,0C490,473.4,490,461.2,481.8,453z M41,191.4
			c0-82.8,68.2-150.1,151.9-150.1s151.9,67.3,151.9,150.1s-68.2,150.1-151.9,150.1S41,274.1,41,191.4z"/>
    </symbol>
    <symbol id="git-svg" viewBox="0 0 512 512">
        <rect
        width="512" height="512"
        rx="15%"
        fill=""/><path fill="#161b22" d="M335 499c14 0 12 17 12 17H165s-2-17 12-17c13 0 16-6 16-12l-1-50c-71 16-86-28-86-28-12-30-28-37-28-37-24-16 1-16 1-16 26 2 40 26 40 26 22 39 59 28 74 22 2-17 9-28 16-35-57-6-116-28-116-126 0-28 10-51 26-69-3-6-11-32 3-67 0 0 21-7 70 26 42-12 86-12 128 0 49-33 70-26 70-26 14 35 6 61 3 67 16 18 26 41 26 69 0 98-60 120-117 126 10 8 18 24 18 48l-1 70c0 6 3 12 16 12z"/>
    </symbol>
    <symbol id="home-svg" viewBox="0 0 491.47 491.47">
        <path d="M0,268.68h73.023v222.055h345.393V268.68h73.054L245.712,0.735L0,268.68z M387.777,238.056v222.055H103.632V238.056H69.624
		L245.712,46.043L421.8,238.056H387.777z"/>
    </symbol>
    <symbol id="forum-svg" viewBox="0 0 32 32">
        <path d="M28,6H8C6.8,6,6,6.8,6,8v14c0,1.2,0.8,2,2,2h8v-2H8V8h20v14h-7.2L16,28.8l1.6,1.2l4.2-6H28c1.2,0,2-0.8,2-2V8
            C30,6.8,29.2,6,28,6z"/>
        <path d="M4,18H2V5c0-1.7,1.3-3,3-3h13v2H5C4.4,4,4,4.4,4,5V18z"/>
        <rect id="_Transparent_Rectangle_" class="st0"/>
    </symbol>
    <symbol id="news-svg" viewBox="0 0 32 32">
        <path d="M26,30H6a2.0023,2.0023,0,0,1-2-2V4A2.0023,2.0023,0,0,1,6,2H26a2.0023,2.0023,0,0,1,2,2V28A2.0023,2.0023,0,0,1,26,30ZM6,4V28H26V4Z"/>
        <rect x="10" y="13" width="12" height="2" transform="translate(32 28) rotate(-180)"/>
        <rect x="12" y="18" width="8" height="2" transform="translate(32 38) rotate(-180)"/>
        <rect id="_Transparent_Rectangle_" data-name="&lt;Transparent Rectangle&gt;" class="cls-1"/>
    </symbol>
    <symbol id="profile-svg" viewBox="0 0 64 64">
        <g>
	    <path d="M32,42c8.271,0,15-8.523,15-19S40.271,4,32,4s-15,8.523-15,19S23.729,42,32,42z M32,8c5.963,0,11,6.869,11,15
		s-5.037,15-11,15s-11-6.869-11-15S26.037,8,32,8z"/>
	    <path d="M4.103,45.367l-4,12c-0.203,0.61-0.101,1.28,0.275,1.802C0.753,59.691,1.357,60,2,60h60c0.643,0,1.247-0.309,1.622-0.831
		c0.376-0.521,0.479-1.191,0.275-1.802l-4-12c-0.209-0.626-0.713-1.108-1.348-1.29l-14-4c-0.482-0.139-0.996-0.09-1.444,0.134
		L32,45.764l-11.105-5.553c-0.448-0.224-0.962-0.272-1.444-0.134l-14,4C4.815,44.259,4.312,44.741,4.103,45.367z M19.802,44.137
		l11.304,5.652c0.562,0.281,1.227,0.281,1.789,0l11.304-5.652l12.238,3.496L59.226,56H4.774l2.789-8.367L19.802,44.137z"/>
</g>
    </symbol>
</svg>